<svg xmlns="http://www.w3.org/2000/svg" viewBox="0 0 308.28 173.03"><defs><style>.cls-1{fill:#fff;}</style></defs><g id="Layer_2" data-name="Layer 2"><g id="Layer_1-2" data-name="Layer 1"><path class="cls-1" d="M151.78,143.18A86.46,86.46,0,1,0,75.7,172.32V142a56.55,56.55,0,1,1,21.47,0v31h86.62V143.18Z"/><path class="cls-1" d="M194.45,143.18l66-64.54q2.89-2.9,6-6.13a56.88,56.88,0,0,0,5.64-6.84,42,42,0,0,0,4.21-7.57A21.17,21.17,0,0,0,278,49.82a20.83,20.83,0,0,0-2-9.37,22.22,22.22,0,0,0-5.41-7,24.16,24.16,0,0,0-7.8-4.44,28.5,28.5,0,0,0-9.49-1.56q-10.8,0-17.77,6.24T227.1,50.54l-30.25-2.4a54.15,54.15,0,0,1,5.63-20.78,46.68,46.68,0,0,1,12.13-15,52.7,52.7,0,0,1,17.3-9.13A70.66,70.66,0,0,1,253.28.1a74.34,74.34,0,0,1,21.5,3A52.2,52.2,0,0,1,292.19,12,41.58,41.58,0,0,1,304,27q4.32,9.14,4.32,21.38,0,16.09-7.33,27.74A108.82,108.82,0,0,1,282.1,98.33l-49.67,44.85h75.85V173H194.45Z"/></g></g></svg>